<?xml version="1.0" encoding="utf-8"?>
<!-- Generator: Adobe Illustrator 23.0.6, SVG Export Plug-In . SVG Version: 6.00 Build 0)  -->
<svg version="1.1" id="Layer_1" xmlns="http://www.w3.org/2000/svg" xmlns:xlink="http://www.w3.org/1999/xlink" x="0px" y="0px"
	 viewBox="0 0 273 50" style="enable-background:new 0 0 273 50;" xml:space="preserve">
<style type="text/css">
	.st0{fill:#E31D42;}
	.st1{fill:#1CA56F;}
	.st2{fill:#211D1E;}
	.st3{fill:#163671;}
</style>
<g>
	<path class="st0" d="M15.6,33.6c7.9,7.4,17.2,9.9,27.6,8.3c-7.9,9.7-25.9,11.9-36.7-0.1C9.4,38.9,12.4,36.2,15.6,33.6z"/>
	<path class="st1" d="M24.1,0c0.6,0,1.2,0,1.7,0C33.3,0.5,40.5,4,44,8.9c-13.3-2.8-24.9,0-34.7,9.8c-0.9-4.9-0.2-9.6,1.6-14.1
		c0.1-0.3,0.5-0.5,0.8-0.7C15.4,1.5,19.6,0.2,24.1,0z"/>
	<path class="st2" d="M21.6,36.5c12.3-1.7,21.7-7.3,27.2-18.6c2,4.9,1.9,14.6-3.9,22.1C36.8,41.9,29,40.9,21.6,36.5z"/>
	<path class="st0" d="M1.5,33.4c-3.7-8.8-0.2-22,7.4-27.4c-2.1,6.8-1.7,13.4,1.3,19.9C7.2,28.3,4.3,30.7,1.5,33.4z"/>
	<path class="st3" d="M19.8,20.7c0.3,1,0.5,1.9,0.8,2.8c-6.2,4-11.9,8.7-17.3,13.9c-0.4-0.9-0.9-1.7-1.3-2.6
		C7.5,29.6,13.4,24.8,19.8,20.7z"/>
	<path class="st3" d="M5.6,40.8c-0.4-0.6-0.8-1-1.1-1.5C4.3,39,4.2,38.8,4,38.5c5.3-5.2,11-10,17.1-14.2c0.6,0.7,1.2,1.4,2.1,2
		C16.8,30.5,11,35.4,5.6,40.8z"/>
	<path class="st3" d="M30.8,20c5.1-3.8,10.7-5.2,16.5-6.3c0.2,0.4,0.4,0.8,0.6,1.2c0.2,0.4,0.3,0.8,0.5,1.3
		c-1.3,0.3-2.5,0.5-3.7,0.8c-2.8,0.6-5.5,1.4-8.1,2.5C34.8,20.2,33,19.7,30.8,20z"/>
	<path class="st3" d="M27,15.2c-2.3,1.6-4.3,3.2-3.1,6.3c0.8,2,2.6,2.8,6.1,2.5c-0.8,1.8-3.5,2.7-5.6,2c-2.7-1-4.3-4.3-3.5-7.3
		C21.6,15.9,23.8,14.6,27,15.2z"/>
	<path class="st3" d="M45.2,10.2c0.5,0.8,1,1.6,1.6,2.5C41.3,13.9,35.9,15,30.7,17C32.2,14.1,37.1,11.8,45.2,10.2z"/>
	<path class="st3" d="M24.6,20.5c-0.5-1.3-0.1-2.3,0.9-3c1.9-1.4,3.4-3.1,4.9-4.8c1.7-2,4-2.3,6.1-1C31.7,13.4,29.1,18,24.6,20.5z"
		/>
	<path class="st3" d="M25.6,22.2c1.8-0.8,3.4-1.4,5.2-1.4c3.2,0,6.4-0.1,9.4-1.9c0.1,0.9-0.3,1.3-0.6,1.7c-1.2,1.4-2.7,2.2-4.5,2.3
		c-2.4,0.1-4.7,0.2-7.1,0.3C27.1,23.2,26.3,22.9,25.6,22.2z"/>
</g>
<g>
	<path class="st2" d="M69.6,36.3h-2.5V17h-6.8v-2.2h16.1V17h-6.8V36.3z"/>
	<path class="st2" d="M93.2,21.1c0,2.2-0.7,3.8-2.2,5c-1.5,1.2-3.6,1.8-6.4,1.8h-2.5v8.4h-2.5V14.8h5.6
		C90.5,14.8,93.2,16.9,93.2,21.1z M82.1,25.7h2.2c2.2,0,3.8-0.4,4.8-1.1s1.5-1.9,1.5-3.4c0-1.4-0.5-2.5-1.4-3.2s-2.4-1-4.3-1h-2.8
		V25.7z"/>
	<path class="st2" d="M111.1,36.3l-2.7-6.8h-8.6l-2.6,6.8h-2.5l8.5-21.5h2.1l8.4,21.5H111.1z M107.7,27.2l-2.5-6.6
		c-0.3-0.8-0.7-1.9-1-3.1c-0.2,0.9-0.5,2-0.9,3.1l-2.5,6.6H107.7z"/>
	<path class="st2" d="M143.1,36.3h-2.5l-4.3-14.3c-0.2-0.6-0.4-1.4-0.7-2.4s-0.4-1.5-0.4-1.7c-0.2,1.3-0.6,2.7-1,4.2l-4.2,14.3h-2.5
		l-5.7-21.4h2.6l3.4,13.2c0.5,1.9,0.8,3.5,1,5c0.3-1.8,0.7-3.5,1.2-5.2l3.8-13h2.6l4,13.1c0.5,1.5,0.9,3.2,1.2,5.1
		c0.2-1.4,0.5-3.1,1.1-5.1l3.4-13.2h2.6L143.1,36.3z"/>
	<path class="st2" d="M158.6,36.5c-2.4,0-4.2-0.7-5.6-2.2s-2.1-3.5-2.1-6c0-2.6,0.6-4.6,1.9-6.2c1.3-1.5,3-2.3,5.1-2.3
		c2,0,3.6,0.7,4.8,2c1.2,1.3,1.8,3.1,1.8,5.2v1.5h-11.1c0,1.9,0.5,3.3,1.4,4.3c0.9,1,2.2,1.5,3.8,1.5c1.7,0,3.4-0.4,5.1-1.1v2.2
		c-0.9,0.4-1.7,0.6-2.4,0.8C160.6,36.5,159.7,36.5,158.6,36.5z M158,21.9c-1.3,0-2.3,0.4-3.1,1.3s-1.2,2-1.4,3.5h8.4
		c0-1.5-0.3-2.7-1-3.5S159.3,21.9,158,21.9z"/>
	<path class="st2" d="M176.2,19.9c2.1,0,3.7,0.7,4.9,2.2c1.2,1.4,1.8,3.5,1.8,6.1s-0.6,4.7-1.8,6.1c-1.2,1.5-2.8,2.2-4.9,2.2
		c-1,0-2-0.2-2.9-0.6c-0.9-0.4-1.6-1-2.2-1.8h-0.2l-0.5,2.1h-1.7V13.5h2.4V19c0,1.2,0,2.4-0.1,3.3h0.1
		C172.3,20.7,173.9,19.9,176.2,19.9z M175.8,22c-1.7,0-2.9,0.5-3.6,1.4c-0.7,1-1.1,2.6-1.1,4.8s0.4,3.9,1.1,4.8c0.8,1,2,1.5,3.6,1.5
		c1.5,0,2.6-0.5,3.3-1.6c0.7-1.1,1.1-2.7,1.1-4.7c0-2.1-0.4-3.6-1.1-4.7S177.3,22,175.8,22z"/>
	<path class="st2" d="M208.8,21.1c0,2.2-0.7,3.8-2.2,5c-1.5,1.2-3.6,1.8-6.4,1.8h-2.5v8.4h-2.5V14.8h5.6
		C206.1,14.8,208.8,16.9,208.8,21.1z M197.7,25.7h2.2c2.2,0,3.8-0.4,4.8-1.1s1.5-1.9,1.5-3.4c0-1.4-0.5-2.5-1.4-3.2s-2.4-1-4.3-1
		h-2.8V25.7z"/>
	<path class="st2" d="M226.8,28.2c0,2.6-0.7,4.7-2,6.1c-1.3,1.5-3.1,2.2-5.5,2.2c-1.4,0-2.7-0.3-3.8-1s-2-1.6-2.6-2.9
		s-0.9-2.7-0.9-4.4c0-2.6,0.7-4.7,2-6.1c1.3-1.5,3.1-2.2,5.4-2.2c2.2,0,4,0.7,5.4,2.2C226.1,23.6,226.8,25.7,226.8,28.2z
		 M214.6,28.2c0,2.1,0.4,3.6,1.2,4.7s2,1.6,3.6,1.6s2.8-0.5,3.6-1.6c0.8-1.1,1.2-2.6,1.2-4.7c0-2-0.4-3.6-1.2-4.7
		c-0.8-1.1-2-1.6-3.7-1.6c-1.6,0-2.8,0.5-3.6,1.6S214.6,26.1,214.6,28.2z"/>
	<path class="st2" d="M238.4,19.9c0.7,0,1.4,0.1,1.9,0.2l-0.3,2.3c-0.7-0.1-1.3-0.2-1.8-0.2c-1.3,0-2.4,0.5-3.3,1.6
		c-0.9,1.1-1.4,2.4-1.4,3.9v8.6H231V20.2h2l0.3,3h0.1c0.6-1,1.3-1.9,2.2-2.4S237.4,19.9,238.4,19.9z"/>
	<path class="st2" d="M248.5,34.5c0.4,0,0.8,0,1.2-0.1s0.7-0.1,1-0.2v1.9c-0.3,0.1-0.7,0.2-1.2,0.3c-0.5,0.1-1,0.1-1.4,0.1
		c-3.1,0-4.7-1.6-4.7-4.9v-9.6h-2.3v-1.2l2.3-1l1-3.4h1.4v3.7h4.7v1.9h-4.7v9.4c0,1,0.2,1.7,0.7,2.2S247.7,34.5,248.5,34.5z"/>
	<path class="st2" d="M263.8,36.3l-0.5-2.3h-0.1c-0.8,1-1.6,1.7-2.4,2c-0.8,0.4-1.8,0.5-3,0.5c-1.6,0-2.8-0.4-3.7-1.2
		c-0.9-0.8-1.4-2-1.4-3.5c0-3.2,2.6-4.9,7.8-5.1l2.7-0.1v-1c0-1.3-0.3-2.2-0.8-2.8c-0.5-0.6-1.4-0.9-2.6-0.9c-1.3,0-2.9,0.4-4.5,1.2
		l-0.7-1.9c0.8-0.4,1.7-0.8,2.6-1c0.9-0.2,1.9-0.4,2.8-0.4c1.9,0,3.3,0.4,4.3,1.3c0.9,0.8,1.4,2.2,1.4,4.1v11H263.8z M258.3,34.5
		c1.5,0,2.7-0.4,3.6-1.2c0.9-0.8,1.3-2,1.3-3.5v-1.5l-2.4,0.1c-1.9,0.1-3.3,0.4-4.2,0.9c-0.9,0.5-1.3,1.4-1.3,2.5
		c0,0.9,0.3,1.5,0.8,2C256.6,34.3,257.3,34.5,258.3,34.5z"/>
	<path class="st2" d="M273,36.3h-2.4V13.5h2.4V36.3z"/>
</g>
</svg>
