<?xml version="1.0" standalone="no"?>
<!DOCTYPE svg PUBLIC "-//W3C//DTD SVG 20010904//EN"
 "http://www.w3.org/TR/2001/REC-SVG-20010904/DTD/svg10.dtd">
<svg version="1.0" xmlns="http://www.w3.org/2000/svg"
 width="260.000000pt" height="260.000000pt" viewBox="0 0 260.000000 260.000000"
 preserveAspectRatio="xMidYMid meet">
<metadata>
Created by potrace 1.11, written by Peter Selinger 2001-2013
</metadata>
<g transform="translate(0.000000,260.000000) scale(0.100000,-0.100000)"
fill="#000000" stroke="none">
<path d="M1165 2593 c-80 -9 -208 -39 -285 -65 -85 -30 -260 -116 -292 -145
-27 -24 -88 -224 -105 -343 -10 -71 -10 -324 0 -373 l8 -38 77 68 c42 37 79
71 82 74 3 3 32 25 65 50 33 24 62 47 65 50 10 11 157 97 230 134 167 84 353
141 555 169 98 13 382 14 475 2 162 -23 242 -36 254 -43 19 -12 -67 90 -111
130 -161 150 -426 277 -651 313 -20 3 -41 8 -45 11 -10 6 -279 11 -322 6z"/>
<path d="M372 2203 c-91 -90 -143 -159 -204 -273 -103 -193 -167 -460 -162
-678 1 -64 4 -94 21 -202 3 -19 16 -70 30 -114 l25 -78 36 33 c20 19 41 39 48
44 6 6 31 28 55 51 24 22 102 89 174 149 94 79 130 115 128 130 -1 11 -22 79
-46 150 -25 72 -48 148 -51 170 -4 22 -10 65 -15 95 -5 30 -8 120 -6 200 2
138 13 213 50 350 8 30 13 56 11 58 -2 2 -44 -36 -94 -85z"/>
<path d="M2175 2025 c-208 -53 -334 -102 -430 -166 -70 -47 -135 -109 -135
-129 0 -13 -7 -14 96 20 132 45 320 95 534 143 105 24 191 47 192 51 1 10 -74
126 -81 125 -3 0 -82 -20 -176 -44z"/>
<path d="M1705 2027 c-44 -15 -94 -54 -155 -122 -50 -56 -96 -102 -219 -216
-27 -25 -51 -57 -53 -70 -5 -35 3 -79 14 -79 11 0 113 69 143 97 11 10 65 58
120 108 55 49 102 93 105 96 17 21 144 108 188 129 28 14 52 28 52 32 0 24
-144 43 -195 25z"/>
<path d="M2415 1883 c-321 -74 -410 -101 -562 -173 -89 -42 -243 -133 -243
-143 0 -6 232 0 258 7 13 3 65 21 117 40 85 32 315 97 390 110 17 3 41 8 55
11 14 3 40 8 58 11 37 7 37 13 0 97 -21 46 -28 50 -73 40z"/>
<path d="M1248 1804 c-188 -57 -220 -355 -54 -501 76 -67 181 -83 276 -42 44
19 100 68 100 87 0 4 -35 7 -79 8 -137 1 -204 42 -241 146 -19 55 -19 83 1
145 11 35 88 117 132 140 16 8 26 17 23 21 -13 12 -113 10 -158 -4z"/>
<path d="M2515 1613 c-203 -357 -433 -577 -767 -733 -171 -79 -492 -171 -606
-173 -24 -1 9 -23 95 -67 143 -71 292 -122 426 -145 15 -3 39 -8 55 -11 47
-11 375 -13 437 -4 187 30 184 29 221 79 43 58 136 245 164 331 48 148 59 234
56 430 -1 102 -5 196 -9 210 -24 92 -31 116 -37 123 -5 5 -20 -13 -35 -40z"/>
<path d="M2035 1590 c-53 -24 -104 -40 -185 -55 -14 -3 -74 -8 -135 -10 -60
-3 -133 -7 -161 -10 -56 -5 -206 -56 -211 -72 -2 -6 15 -20 39 -32 39 -18 56
-20 193 -16 222 7 299 14 346 30 76 27 157 101 172 158 5 16 7 30 5 32 -2 1
-30 -10 -63 -25z"/>
<path d="M965 1478 c-69 -47 -292 -206 -315 -224 -8 -7 -68 -55 -133 -107
-105 -85 -187 -155 -268 -228 -158 -145 -147 -124 -106 -202 l34 -65 54 50
c98 91 203 184 284 252 44 37 90 76 101 86 51 42 305 230 381 280 54 36 81 60
78 70 -22 84 -38 130 -43 129 -4 0 -34 -18 -67 -41z"/>
<path d="M962 1239 c-103 -75 -365 -280 -382 -298 -3 -4 -41 -37 -85 -76 -92
-81 -86 -75 -199 -183 l-86 -82 41 -61 c46 -68 41 -68 114 6 17 16 73 68 125
115 51 47 101 92 110 100 89 83 343 284 492 389 l116 82 -49 49 c-28 28 -55
50 -62 50 -7 -1 -67 -41 -135 -91z"/>
<path d="M735 788 c-231 -201 -385 -346 -385 -363 0 -17 141 -143 226 -201
134 -93 300 -163 474 -200 119 -25 391 -26 510 -1 276 59 530 200 675 375 l20
24 -70 -8 c-86 -10 -358 -11 -440 -2 -296 34 -578 158 -839 369 -47 38 -89 69
-93 69 -4 -1 -39 -28 -78 -62z"/>
</g>
</svg>
